<svg xmlns="http://www.w3.org/2000/svg" viewBox="0 0 120 120" width="120" height="120">
  <rect width="120" height="120" rx="26" fill="#103a5b"/>
  <g transform="translate(20.5 18) scale(0.66)">
    <path
      fill="#1ba4c6"
      fill-rule="evenodd"
      clip-rule="evenodd"
      d="M56.04 20.09 Q60 12 63.96 20.09 L102.04 97.91 Q106 106 97 106 L23 106 Q14 106 17.96 97.91 Z
         M48 62 C48 53 52 49 56 50 C58 50.5 59 52.5 60 52.5 C61 52.5 62 50.5 64 50 C68 49 72 53 72 62
         C72 72 69 80 67 96 C66.6 100 66 104 64.5 104 C63.2 104 62.6 99 62 94 C61.4 89 58.6 89 58 94
         C57.4 99 56.8 104 55.5 104 C54 104 53.4 100 53 96 C51 80 48 72 48 62 Z"
    />
    <ellipse cx="60" cy="80" rx="4.2" ry="5.4" fill="#38b6d4"/>
  </g>
</svg>
